<svg width="80" height="80" viewBox="0 0 80 80" fill="none" xmlns="http://www.w3.org/2000/svg">
<circle cx="40" cy="40" r="40" fill="#E9743F"/>
<mask id="mask0_306_726" style="mask-type:luminance" maskUnits="userSpaceOnUse" x="23" y="22" width="34" height="35">
<path d="M30.8031 40.1043C29.8571 39.9159 28.9586 39.5401 28.1607 38.9992C27.3627 38.4583 26.6816 37.7632 26.1576 36.955C25.6335 36.1468 25.2772 35.242 25.1096 34.294C24.9421 33.346 24.9668 32.3742 25.1822 31.4359C25.3976 30.4976 25.7993 29.6119 26.3637 28.8312C26.9281 28.0506 27.6436 27.3907 28.4679 26.8908C29.2923 26.3909 30.2087 26.0609 31.1631 25.9206C32.1174 25.7802 33.0903 25.8322 34.0241 26.0735C34.6989 25.2187 35.5593 24.5279 36.5405 24.0533C37.5218 23.5787 38.5982 23.3325 39.6886 23.3335C40.8105 23.3325 41.9171 23.593 42.9202 24.0941C43.9233 24.5953 44.7953 25.3233 45.4667 26.2202C46.4023 25.9035 47.3931 25.7818 48.3777 25.8629C49.3623 25.9439 50.3197 26.2258 51.1907 26.6912C52.0616 27.1566 52.8275 27.7955 53.4409 28.5683C54.0543 29.3411 54.5021 30.2314 54.7565 31.184C55.011 32.1366 55.0667 33.1312 54.9202 34.1061C54.7738 35.0811 54.4282 36.0156 53.9049 36.8518C53.3817 37.6881 52.6919 38.4082 51.8784 38.9675C51.0648 39.5268 50.1449 39.9135 49.1754 40.1035V53.3335C49.1754 53.7755 48.9995 54.1994 48.6862 54.512C48.373 54.8246 47.9482 55.0002 47.5052 55.0002H32.4733C32.0304 55.0002 31.6055 54.8246 31.2923 54.512C30.9791 54.1994 30.8031 53.7755 30.8031 53.3335V40.1043Z" fill="white" stroke="white" stroke-width="2.33333" stroke-linecap="round" stroke-linejoin="round"/>
<path d="M30.8047 45.8335H49.177M36.6504 40.8335V45.8335" stroke="black" stroke-width="2.33333" stroke-linecap="round" stroke-linejoin="round"/>
<path d="M49.177 43.3335V48.3335M30.8047 43.3335V48.3335" stroke="white" stroke-width="2.33333" stroke-linecap="round" stroke-linejoin="round"/>
</mask>
<g mask="url(#mask0_306_726)">
<path d="M19.9453 20H60.0304V60H19.9453V20Z" fill="white"/>
</g>
</svg>
