<svg width="90" height="90" viewBox="0 0 90 90" fill="none" xmlns="http://www.w3.org/2000/svg">
<path d="M86.5294 6.94033C84.617 6.94033 83.0588 5.38229 83.0588 3.47016C83.0588 1.55803 84.617 0 86.5294 0C88.4418 0 90 1.55803 90 3.47016C90 5.38229 88.4536 6.94033 86.5294 6.94033ZM90 24.2321C90 22.32 88.4418 20.762 86.5294 20.762C84.617 20.762 83.0588 22.32 83.0588 24.2321C83.0588 26.1443 84.617 27.7023 86.5294 27.7023C88.4536 27.7023 90 26.1561 90 24.2321ZM90 44.9941C90 43.082 88.4418 41.5239 86.5294 41.5239C84.617 41.5239 83.0588 43.082 83.0588 44.9941C83.0588 46.9062 84.617 48.4643 86.5294 48.4643C88.4536 48.4643 90 46.918 90 44.9941ZM90 65.7561C90 63.8439 88.4418 62.2859 86.5294 62.2859C84.617 62.2859 83.0588 63.8439 83.0588 65.7561C83.0588 67.6682 84.617 69.2262 86.5294 69.2262C88.4536 69.238 90 67.68 90 65.7561ZM90 86.5299C90 84.6177 88.4418 83.0597 86.5294 83.0597C84.617 83.0597 83.0588 84.6177 83.0588 86.5299C83.0588 88.442 84.617 90 86.5294 90C88.4536 90 90 88.442 90 86.5299ZM69.2353 3.47016C69.2353 1.55803 67.6771 0 65.7647 0C63.8523 0 62.2941 1.55803 62.2941 3.47016C62.2941 5.38229 63.8523 6.94033 65.7647 6.94033C67.6889 6.94033 69.2353 5.38229 69.2353 3.47016ZM69.2353 24.2321C69.2353 22.32 67.6771 20.762 65.7647 20.762C63.8523 20.762 62.2941 22.32 62.2941 24.2321C62.2941 26.1443 63.8523 27.7023 65.7647 27.7023C67.6889 27.7023 69.2353 26.1561 69.2353 24.2321ZM69.2353 44.9941C69.2353 43.082 67.6771 41.5239 65.7647 41.5239C63.8523 41.5239 62.2941 43.082 62.2941 44.9941C62.2941 46.9062 63.8523 48.4643 65.7647 48.4643C67.6889 48.4643 69.2353 46.918 69.2353 44.9941ZM69.2353 65.7561C69.2353 63.8439 67.6771 62.2859 65.7647 62.2859C63.8523 62.2859 62.2941 63.8439 62.2941 65.7561C62.2941 67.6682 63.8523 69.2262 65.7647 69.2262C67.6889 69.238 69.2353 67.68 69.2353 65.7561ZM69.2353 86.5299C69.2353 84.6177 67.6771 83.0597 65.7647 83.0597C63.8523 83.0597 62.2941 84.6177 62.2941 86.5299C62.2941 88.442 63.8523 90 65.7647 90C67.6889 90 69.2353 88.442 69.2353 86.5299ZM48.4706 3.47016C48.4706 1.55803 46.9124 0 45 0C43.0876 0 41.5294 1.55803 41.5294 3.47016C41.5294 5.38229 43.0876 6.94033 45 6.94033C46.9124 6.94033 48.4706 5.38229 48.4706 3.47016ZM48.4706 24.2321C48.4706 22.32 46.9124 20.762 45 20.762C43.0876 20.762 41.5294 22.32 41.5294 24.2321C41.5294 26.1443 43.0876 27.7023 45 27.7023C46.9124 27.7023 48.4706 26.1561 48.4706 24.2321ZM48.4706 44.9941C48.4706 43.082 46.9124 41.5239 45 41.5239C43.0876 41.5239 41.5294 43.082 41.5294 44.9941C41.5294 46.9062 43.0876 48.4643 45 48.4643C46.9124 48.4643 48.4706 46.918 48.4706 44.9941ZM48.4706 65.7561C48.4706 63.8439 46.9124 62.2859 45 62.2859C43.0876 62.2859 41.5294 63.8439 41.5294 65.7561C41.5294 67.6682 43.0876 69.2262 45 69.2262C46.9124 69.2262 48.4706 67.68 48.4706 65.7561ZM48.4706 86.5299C48.4706 84.6177 46.9124 83.0597 45 83.0597C43.0876 83.0597 41.5294 84.6177 41.5294 86.5299C41.5294 88.442 43.0876 90 45 90C46.9124 90 48.4706 88.442 48.4706 86.5299ZM27.7059 3.47016C27.7059 1.55803 26.1477 0 24.2353 0C22.3229 0 20.7647 1.55803 20.7647 3.47016C20.7647 5.38229 22.3229 6.94033 24.2353 6.94033C26.1477 6.94033 27.7059 5.38229 27.7059 3.47016ZM27.7059 24.2321C27.7059 22.32 26.1477 20.762 24.2353 20.762C22.3229 20.762 20.7647 22.32 20.7647 24.2321C20.7647 26.1443 22.3229 27.7023 24.2353 27.7023C26.1477 27.7023 27.7059 26.1561 27.7059 24.2321ZM27.7059 44.9941C27.7059 43.082 26.1477 41.5239 24.2353 41.5239C22.3229 41.5239 20.7647 43.082 20.7647 44.9941C20.7647 46.9062 22.3229 48.4643 24.2353 48.4643C26.1477 48.4643 27.7059 46.918 27.7059 44.9941ZM27.7059 65.7561C27.7059 63.8439 26.1477 62.2859 24.2353 62.2859C22.3229 62.2859 20.7647 63.8439 20.7647 65.7561C20.7647 67.6682 22.3229 69.2262 24.2353 69.2262C26.1477 69.238 27.7059 67.68 27.7059 65.7561ZM27.7059 86.5299C27.7059 84.6177 26.1477 83.0597 24.2353 83.0597C22.3229 83.0597 20.7647 84.6177 20.7647 86.5299C20.7647 88.442 22.3229 90 24.2353 90C26.1477 90 27.7059 88.442 27.7059 86.5299ZM6.94125 3.47016C6.94125 1.55803 5.383 0 3.47062 0C1.55824 0 0 1.55803 0 3.47016C0 5.38229 1.55824 6.94033 3.47062 6.94033C5.383 6.94033 6.94125 5.38229 6.94125 3.47016ZM6.94125 24.2321C6.94125 22.32 5.383 20.762 3.47062 20.762C1.55824 20.762 0 22.32 0 24.2321C0 26.1443 1.55824 27.7023 3.47062 27.7023C5.383 27.7023 6.94125 26.1561 6.94125 24.2321ZM6.94125 44.9941C6.94125 43.082 5.383 41.5239 3.47062 41.5239C1.55824 41.5239 0 43.082 0 44.9941C0 46.9062 1.55824 48.4643 3.47062 48.4643C5.383 48.4643 6.94125 46.918 6.94125 44.9941ZM6.94125 65.7561C6.94125 63.8439 5.383 62.2859 3.47062 62.2859C1.55824 62.2859 0 63.8439 0 65.7561C0 67.6682 1.55824 69.2262 3.47062 69.2262C5.383 69.238 6.94125 67.68 6.94125 65.7561ZM6.94125 86.5299C6.94125 84.6177 5.383 83.0597 3.47062 83.0597C1.55824 83.0597 0 84.6177 0 86.5299C0 88.442 1.55824 90 3.47062 90C5.383 90 6.94125 88.442 6.94125 86.5299Z" fill="#434248" fill-opacity="0.25"/>
</svg>
