<svg width="24" height="25" viewBox="0 0 24 25" fill="none" xmlns="http://www.w3.org/2000/svg">
<path d="M11.1205 18.75C10.9305 18.75 10.7405 18.68 10.5905 18.53L9.09055 17.03C8.80055 16.74 8.80055 16.26 9.09055 15.97C9.38055 15.68 9.86055 15.68 10.1505 15.97L11.1405 16.96L13.8605 14.45C14.1605 14.17 14.6405 14.19 14.9205 14.49C15.2005 14.79 15.1805 15.27 14.8805 15.55L11.6305 18.55C11.4905 18.68 11.3105 18.75 11.1205 18.75Z" fill="white"/>
<path d="M5.19086 6.87994C5.00086 6.87994 4.80086 6.79994 4.66086 6.65994C4.37086 6.36994 4.37086 5.88994 4.66086 5.59994L8.29086 1.96994C8.58086 1.67994 9.06086 1.67994 9.35086 1.96994C9.64086 2.25994 9.64086 2.73994 9.35086 3.02994L5.72086 6.65994C5.57086 6.79994 5.38086 6.87994 5.19086 6.87994Z" fill="white"/>
<path d="M18.8091 6.87994C18.6191 6.87994 18.4291 6.80994 18.2791 6.65994L14.6491 3.02994C14.3591 2.73994 14.3591 2.25994 14.6491 1.96994C14.9391 1.67994 15.4191 1.67994 15.7091 1.96994L19.3391 5.59994C19.6291 5.88994 19.6291 6.36994 19.3391 6.65994C19.1991 6.79994 18.9991 6.87994 18.8091 6.87994Z" fill="white"/>
<path d="M20.21 11.1001C20.14 11.1001 20.07 11.1001 20 11.1001H19.77H4C3.3 11.1101 2.5 11.1101 1.92 10.5301C1.46 10.0801 1.25 9.3801 1.25 8.3501C1.25 5.6001 3.26 5.6001 4.22 5.6001H19.78C20.74 5.6001 22.75 5.6001 22.75 8.3501C22.75 9.3901 22.54 10.0801 22.08 10.5301C21.56 11.0501 20.86 11.1001 20.21 11.1001ZM4.22 9.6001H20.01C20.46 9.6101 20.88 9.6101 21.02 9.4701C21.09 9.4001 21.24 9.1601 21.24 8.3501C21.24 7.2201 20.96 7.1001 19.77 7.1001H4.22C3.03 7.1001 2.75 7.2201 2.75 8.3501C2.75 9.1601 2.91 9.4001 2.97 9.4701C3.11 9.6001 3.54 9.6001 3.98 9.6001H4.22Z" fill="white"/>
<path d="M14.8907 23.2502H8.86073C5.28073 23.2502 4.48073 21.1202 4.17073 19.2702L2.76073 10.6202C2.69073 10.2102 2.97073 9.83024 3.38073 9.76024C3.78073 9.69024 4.17073 9.97024 4.24073 10.3802L5.65073 19.0202C5.94073 20.7902 6.54073 21.7502 8.86073 21.7502H14.8907C17.4607 21.7502 17.7507 20.8502 18.0807 19.1102L19.7607 10.3602C19.8407 9.95024 20.2307 9.68024 20.6407 9.77024C21.0507 9.85024 21.3107 10.2402 21.2307 10.6502L19.5507 19.4002C19.1607 21.4302 18.5107 23.2502 14.8907 23.2502Z" fill="white"/>
</svg>
