<svg width="15" height="15" viewBox="0 0 15 15" fill="none" xmlns="http://www.w3.org/2000/svg">
<path d="M7.5 0.468747C8.89065 0.468747 10.2501 0.881123 11.4064 1.65373C12.5626 2.42633 13.4638 3.52446 13.996 4.80925C14.5282 6.09405 14.6674 7.5078 14.3961 8.87173C14.1248 10.2357 13.4552 11.4885 12.4718 12.4718C11.4885 13.4552 10.2357 14.1248 8.87173 14.3961C7.5078 14.6674 6.09405 14.5282 4.80926 13.996C3.52446 13.4638 2.42633 12.5626 1.65373 11.4064C0.881126 10.2501 0.46875 8.89065 0.46875 7.5C0.46875 5.63519 1.20954 3.84677 2.52816 2.52815C3.84677 1.20954 5.6352 0.468747 7.5 0.468747ZM7.5 11.8969C7.68542 11.8969 7.86668 11.8419 8.02085 11.7389C8.17502 11.6359 8.29518 11.4894 8.36614 11.3181C8.43709 11.1468 8.45566 10.9583 8.41949 10.7765C8.38331 10.5946 8.29402 10.4276 8.16291 10.2965C8.0318 10.1653 7.86475 10.0761 7.6829 10.0399C7.50104 10.0037 7.31254 10.0223 7.14123 10.0932C6.96993 10.1642 6.82351 10.2844 6.7205 10.4385C6.61748 10.5927 6.5625 10.774 6.5625 10.9594C6.5625 11.208 6.66127 11.4465 6.83709 11.6223C7.0129 11.7981 7.25136 11.8969 7.5 11.8969ZM6.5625 7.5C6.5625 7.74864 6.66127 7.98709 6.83709 8.16291C7.0129 8.33873 7.25136 8.4375 7.5 8.4375C7.74864 8.4375 7.9871 8.33873 8.16291 8.16291C8.33873 7.98709 8.4375 7.74864 8.4375 7.5V3.75C8.4375 3.50136 8.33873 3.2629 8.16291 3.08708C7.9871 2.91127 7.74864 2.8125 7.5 2.8125C7.25136 2.8125 7.0129 2.91127 6.83709 3.08708C6.66127 3.2629 6.5625 3.50136 6.5625 3.75V7.5Z" fill="#F63737"/>
</svg>
