<svg width="25" height="25" viewBox="0 0 25 25" fill="none" xmlns="http://www.w3.org/2000/svg">
<path d="M11.6196 18.75C11.4296 18.75 11.2396 18.68 11.0896 18.53L9.58957 17.03C9.29957 16.74 9.29957 16.26 9.58957 15.97C9.87957 15.68 10.3596 15.68 10.6496 15.97L11.6396 16.96L14.3596 14.45C14.6596 14.17 15.1396 14.19 15.4196 14.49C15.6996 14.79 15.6796 15.27 15.3796 15.55L12.1296 18.55C11.9896 18.68 11.8096 18.75 11.6196 18.75Z" fill="white"/>
<path d="M5.68988 6.87994C5.49988 6.87994 5.29988 6.79994 5.15988 6.65994C4.86988 6.36994 4.86988 5.88994 5.15988 5.59994L8.78988 1.96994C9.07988 1.67994 9.55988 1.67994 9.84988 1.96994C10.1399 2.25994 10.1399 2.73994 9.84988 3.02994L6.21988 6.65994C6.06988 6.79994 5.87988 6.87994 5.68988 6.87994Z" fill="white"/>
<path d="M19.3101 6.87994C19.1201 6.87994 18.9301 6.80994 18.7801 6.65994L15.1501 3.02994C14.8601 2.73994 14.8601 2.25994 15.1501 1.96994C15.4401 1.67994 15.9201 1.67994 16.2101 1.96994L19.8401 5.59994C20.1301 5.88994 20.1301 6.36994 19.8401 6.65994C19.7001 6.79994 19.5001 6.87994 19.3101 6.87994Z" fill="white"/>
<path d="M20.71 11.1001C20.64 11.1001 20.57 11.1001 20.5 11.1001H20.27H4.5C3.8 11.1101 3 11.1101 2.42 10.5301C1.96 10.0801 1.75 9.3801 1.75 8.3501C1.75 5.6001 3.76 5.6001 4.72 5.6001H20.28C21.24 5.6001 23.25 5.6001 23.25 8.3501C23.25 9.3901 23.04 10.0801 22.58 10.5301C22.06 11.0501 21.36 11.1001 20.71 11.1001ZM4.72 9.6001H20.51C20.96 9.6101 21.38 9.6101 21.52 9.4701C21.59 9.4001 21.74 9.1601 21.74 8.3501C21.74 7.2201 21.46 7.1001 20.27 7.1001H4.72C3.53 7.1001 3.25 7.2201 3.25 8.3501C3.25 9.1601 3.41 9.4001 3.47 9.4701C3.61 9.6001 4.04 9.6001 4.48 9.6001H4.72Z" fill="white"/>
<path d="M15.3898 23.2502H9.35975C5.77975 23.2502 4.97975 21.1202 4.66975 19.2702L3.25975 10.6202C3.18975 10.2102 3.46975 9.83024 3.87975 9.76024C4.27975 9.69024 4.66975 9.97024 4.73975 10.3802L6.14975 19.0202C6.43975 20.7902 7.03975 21.7502 9.35975 21.7502H15.3898C17.9598 21.7502 18.2498 20.8502 18.5798 19.1102L20.2598 10.3602C20.3398 9.95024 20.7298 9.68024 21.1398 9.77024C21.5498 9.85024 21.8098 10.2402 21.7298 10.6502L20.0498 19.4002C19.6598 21.4302 19.0098 23.2502 15.3898 23.2502Z" fill="white"/>
</svg>
