<svg width="273" height="111" viewBox="0 0 273 111" fill="none" xmlns="http://www.w3.org/2000/svg">
<g clip-path="url(#clip0_957_3214)">
<path d="M163.5 13.7218C167.291 13.7218 170.373 16.9869 170.373 21C170.373 25.0131 167.29 28.2782 163.5 28.2782C159.709 28.2782 156.627 25.0131 156.627 21C156.627 16.9869 159.709 13.7218 163.5 13.7218ZM163.5 12C158.805 12 155 16.0296 155 21C155 25.9704 158.805 30 163.5 30C168.195 30 172 25.9704 172 21C172 16.0296 168.195 12 163.5 12Z" fill="#98C11D"/>
<path d="M161 17H166V17.8661H162.199V20.5249H165.71V21.3797H162.199V25H161V17Z" fill="white"/>
<path d="M204 13.7218C208.014 13.7218 211.278 16.9869 211.278 21C211.278 25.0131 208.012 28.2782 204 28.2782C199.988 28.2782 196.721 25.0131 196.721 21C196.721 16.9869 199.986 13.7218 204 13.7218ZM204 12C199.029 12 195 16.0296 195 21C195 25.9704 199.029 30 204 30C208.97 30 213 25.9704 213 21C213 16.0296 208.97 12 204 12Z" fill="#98C11D"/>
<path d="M206.814 21.487C206.756 20.3716 206.687 19.0301 206.699 18.0332H206.664C206.396 18.9709 206.071 19.9679 205.674 21.0714L204.29 24.9527H203.523L202.256 21.1424C201.883 20.0146 201.569 18.9828 201.348 18.0326H201.325C201.303 19.0295 201.245 20.371 201.174 21.5698L200.965 25H200L200.547 17H201.838L203.175 20.8695C203.501 21.8546 203.768 22.7332 203.966 23.5638H204.001C204.198 22.7569 204.477 21.8783 204.826 20.8695L206.221 17H207.512L208 25H207.012L206.814 21.487Z" fill="white"/>
<path d="M183.999 13.7218C188.013 13.7218 191.278 16.9869 191.278 21C191.278 25.0131 188.013 28.2782 183.999 28.2782C179.987 28.2782 176.722 25.0131 176.722 21C176.722 16.9869 179.987 13.7218 183.999 13.7218ZM183.999 12C179.029 12 175 16.0296 175 21C175 25.9704 179.029 30 183.999 30C188.97 30 193 25.9704 193 21C193 16.0296 188.97 12 183.999 12Z" fill="#98C11D"/>
<path d="M181.986 22.484L181.118 25H180L182.842 17H184.145L187 25H185.846L184.953 22.484H181.986ZM184.729 21.6771L183.911 19.3741C183.724 18.8519 183.6 18.3771 183.476 17.9141H183.45C183.327 18.389 183.191 18.8756 183.03 19.3623L182.211 21.6764H184.729V21.6771Z" fill="white"/>
<path d="M223.999 13.7218C228.013 13.7218 231.278 16.9869 231.278 21C231.278 25.0131 228.013 28.2782 223.999 28.2782C219.987 28.2782 216.722 25.0131 216.722 21C216.722 16.9869 219.987 13.7218 223.999 13.7218ZM223.999 12C219.029 12 215 16.0296 215 21C215 25.9704 219.029 30 223.999 30C228.971 30 233 25.9704 233 21C233 16.0296 228.971 12 223.999 12Z" fill="#98C11D"/>
<path d="M224 17V25H223V17H224Z" fill="white"/>
<path d="M244 13.7218C248.014 13.7218 251.278 16.9869 251.278 21C251.278 25.0131 248.012 28.2782 244 28.2782C239.986 28.2782 236.722 25.0131 236.722 21C236.722 16.9869 239.986 13.7218 244 13.7218ZM244 12C239.029 12 235 16.0296 235 21C235 25.9704 239.029 30 244 30C248.971 30 253 25.9704 253 21C253 16.0296 248.971 12 244 12Z" fill="#98C11D"/>
<path d="M242 17H243.161V24.1339H247V25H242V17Z" fill="white"/>
<path d="M264.001 13.7218C268.013 13.7218 271.278 16.9869 271.278 21C271.278 25.0131 268.013 28.2782 264.001 28.2782C259.987 28.2782 256.722 25.0131 256.722 21C256.722 16.9869 259.987 13.7218 264.001 13.7218ZM264.001 12C259.03 12 255 16.0296 255 21C255 25.9704 259.03 30 264.001 30C268.971 30 273 25.9704 273 21C273 16.0296 268.971 12 264.001 12Z" fill="#98C11D"/>
<path d="M263.424 25V21.6054L261 17H262.126L263.208 19.2077C263.504 19.8126 263.732 20.2993 263.971 20.8576H263.994C264.211 20.3355 264.471 19.8133 264.768 19.2077L265.872 17H267L264.426 21.5935V25H263.424Z" fill="white"/>
<path d="M10.4494 10.04C12.962 10.04 14.9453 10.6804 16.3979 11.9606C17.8505 13.2414 18.5765 14.9183 18.5765 16.9907C18.5765 19.0737 17.8505 20.7481 16.3979 22.0132C14.9453 23.2791 12.962 23.9119 10.4494 23.9119H6.74004V28.7402L9.09196 29.1889V31.8047H0V29.1889L2.3368 28.7402V13.1196L0 12.671V10.04H2.3368H10.4494ZM6.74004 20.5487H10.4494C11.6758 20.5487 12.6028 20.2176 13.2318 19.5548C13.8601 18.8919 14.174 18.0478 14.174 17.0213C14.174 15.9748 13.8594 15.1101 13.2318 14.4278C12.6034 13.745 11.6758 13.4038 10.4494 13.4038H6.74004V20.5487Z" fill="white"/>
<path d="M40.9396 21.0854C40.9396 24.2742 40.0201 26.9102 38.1806 28.9932C36.341 31.0762 33.9336 32.1171 30.9584 32.1171C27.9927 32.1171 25.5985 31.0756 23.7735 28.9932C21.949 26.9108 21.0371 24.2749 21.0371 21.0854V20.7568C21.0371 17.5879 21.9465 14.957 23.7666 12.864C25.5859 10.771 27.9782 9.7251 30.9439 9.7251C33.9191 9.7251 36.3291 10.7716 38.1742 12.864C40.0188 14.957 40.9408 17.5879 40.9408 20.7568V21.0854H40.9396ZM36.5522 20.7268C36.5522 18.4751 36.0795 16.6457 35.1348 15.2406C34.1895 13.8356 32.7923 13.1326 30.9434 13.1326C29.0937 13.1326 27.7142 13.8305 26.8048 15.2256C25.8947 16.6207 25.4398 18.4544 25.4398 20.7268V21.0854C25.4398 23.3777 25.8998 25.2239 26.8193 26.624C27.7393 28.0242 29.1188 28.7239 30.9584 28.7239C32.8181 28.7239 34.2153 28.0236 35.1499 26.624C36.0845 25.2239 36.5522 23.3777 36.5522 21.0854V20.7268Z" fill="white"/>
<path d="M61.2512 10.0391V15.8389H57.874L57.6931 13.4022H53.6522V28.7393L56.0042 29.1878V31.8038H46.897V29.1878L49.249 28.7393V13.4022H45.2232L45.0424 15.8389H41.6802V10.0391H61.2512Z" fill="white"/>
<path d="M83.1468 10.0391V15.8389H79.7695L79.5887 13.4022H75.5478V28.7393L77.8997 29.1878V31.8038H68.792V29.1878L71.144 28.7393V13.4022H67.1182L66.9373 15.8389H63.5752V10.0391H83.1468Z" fill="white"/>
<path d="M99.6458 22.2366H92.2126V28.455H99.2992L99.4952 25.854H102.843V31.8031H85.4731V29.1873L87.8099 28.7386V13.1186L85.4731 12.67V10.0391H87.8099H102.813V16.0032H99.4353L99.2393 13.4022H92.2132V18.8734H99.6464V22.2366H99.6458Z" fill="white"/>
<path d="M128.777 2.4991C139.022 2.4991 147.358 10.7624 147.358 20.92C147.358 31.0777 139.022 39.341 128.777 39.341C118.53 39.341 110.196 31.0777 110.196 20.92C110.196 10.7624 118.53 2.4991 128.777 2.4991ZM128.777 0C117.122 0 107.675 9.36603 107.675 20.92C107.675 32.474 117.122 41.84 128.777 41.84C140.43 41.84 149.878 32.474 149.878 20.92C149.878 9.36603 140.43 0 128.777 0Z" fill="#F59F19"/>
<path d="M128.744 10.1895C131.236 10.1895 133.192 10.7549 134.608 11.8864C136.026 13.0171 136.734 14.5798 136.734 16.5722C136.734 17.6686 136.439 18.6202 135.845 19.4275C135.252 20.2346 134.382 20.8875 133.236 21.3855C134.534 21.7641 135.466 22.3944 136.033 23.2767C136.601 24.1582 136.885 25.2522 136.885 26.5574V27.6639C136.885 28.1424 136.981 28.5136 137.173 28.7779C137.364 29.0415 137.68 29.199 138.122 29.2483L138.665 29.3233V31.9542H136.388C134.95 31.9542 133.94 31.5705 133.357 30.8033C132.774 30.0361 132.482 29.0446 132.482 27.8288V26.588C132.482 25.5321 132.198 24.7017 131.63 24.0988C131.062 23.4959 130.26 23.1798 129.226 23.1498H125.622V28.8903L127.974 29.3388V31.9548H118.881V29.3388L121.218 28.8903V13.2689L118.881 12.8204V10.1895H121.218H128.744ZM125.622 19.786H128.667C129.894 19.786 130.813 19.5268 131.426 19.0088C132.04 18.4909 132.347 17.7436 132.347 16.7665C132.347 15.7899 132.042 15.0097 131.433 14.4273C130.825 13.8438 129.928 13.5526 128.742 13.5526H125.62V19.786H125.622Z" fill="white"/>
<path d="M110.297 39.693C111.756 39.3856 112.493 40.3478 112.559 41.5829C112.699 44.7087 107.674 50.9608 102.398 57.594C99.2663 61.5414 95.0628 66.3715 92.0347 70.4932C89.5989 75.214 88.2352 78.1311 86.6388 81.8198C87.2464 81.5604 88.3706 80.9282 89.178 80.3641C89.9853 79.8004 91.1329 78.967 92.3397 77.7925C93.5472 76.6173 94.7495 75.1153 95.3627 74.2625C95.5625 73.9576 96.0257 73.3346 96.2571 73.4828C96.4877 73.6308 96.0245 74.255 95.8745 74.4837C95.1756 75.5514 93.8093 77.2202 92.4386 78.5597C90.8915 80.0042 89.0368 81.2494 87.9257 81.9434C87.2816 82.3421 86.7782 82.7769 86.555 83.2842C86.2463 84.0065 86.2002 84.4107 86.0988 85.4841C85.7843 88.9685 84.7425 94.3153 83.331 98.5576C82.056 102.507 80.1005 106.995 77.9666 109.417C77.1769 110.372 76.3061 110.951 75.4547 110.998C74.6026 111.046 73.9333 110.398 73.927 108.822C73.8967 105.278 76.5833 97.0868 79.7797 90.0374C82.0718 84.9524 85.0993 78.6609 87.8306 73.1554L87.7537 73.106C87.114 73.8326 85.9381 75.4614 85.0255 76.7704C84.7116 77.1646 84.5352 77.2682 84.3814 77.1689C84.2277 77.0702 84.314 76.8547 84.6141 76.3973C85.8266 74.6305 87.6561 72.3382 88.8225 70.9749C90.9224 66.8507 92.6491 63.4632 94.0173 60.8735C97.6889 54.1834 102.822 46.265 105.558 43.2567C106.901 41.7903 108.458 40.0816 110.235 39.7074L110.297 39.693ZM80.0129 96.6932C78.5931 100.279 76.5821 105.436 76.0659 107.978C75.8605 108.876 76.0312 109.365 76.3892 109.487C76.8102 109.595 77.2148 109.313 77.8538 108.586C79.2333 106.981 81.1479 103.226 82.8281 98.0727C84.3626 93.4762 85.3879 86.8174 85.6331 83.9397C82.678 89.9512 82.3958 90.7997 80.0129 96.6932ZM101.742 57.0092C106.673 50.3173 111.281 44.2844 110.942 41.4636C110.844 40.6957 110.382 40.3984 109.684 40.5451C108.669 40.7594 107.416 42.3376 106.29 43.8902C104.615 46.2807 102.42 49.9643 99.9569 54.5589C96.4354 61.0203 95.2948 63.43 92.8255 68.6183C97.6838 62.2031 99.4269 60.1269 101.742 57.0092Z" fill="white"/>
<path d="M97.3599 74.3024C96.9969 74.7735 96.7694 74.9529 96.6156 74.8541C96.448 74.691 96.6981 74.3106 96.8979 74.0057C97.2477 73.4721 97.9876 72.5924 98.5276 72.0182C99.231 71.2785 99.9979 70.525 101.182 69.5529C102.819 68.2222 104.638 67.1163 106.083 66.7452C106.527 66.6515 107.035 66.5445 107.09 66.7963C107.116 66.9225 106.926 66.9632 106.473 67.3206C105.098 68.3333 104.059 69.6703 102.647 71.7433C101.197 73.9544 100.01 76.7685 100.154 78.053C100.225 78.6952 100.573 79.0826 101.27 78.9358C102.666 78.6416 104.84 76.4079 106.348 73.8551C106.277 73.2128 106.328 72.2163 106.924 70.973C107.42 69.8834 108.199 69.1917 108.603 68.91C108.699 68.4289 108.551 67.7373 108.484 67.4231C108.336 66.7314 108.042 66.5964 108.205 66.4303C108.431 66.2503 108.867 66.4221 109.174 66.6201C109.789 67.0169 110.332 67.691 110.408 68.6614C110.541 70.2108 109.473 72.3432 107.883 74.5187C108.164 74.5898 108.848 74.3806 109.089 74.265C109.632 74.0181 110.263 73.5571 111.016 72.7411C111.72 72.0007 112.133 71.4541 112.696 70.6781C113.159 70.0546 113.409 69.6735 113.64 69.8215C113.871 69.9697 113.571 70.4276 113.058 71.1273C112.595 71.7508 112.081 72.4506 111.378 73.191C110.512 74.0963 109.817 74.5717 109.21 74.831C108.666 75.0778 107.905 75.2377 107.47 75.066C106.091 76.6716 103.499 79.1245 100.898 79.6723C98.9316 80.0867 97.5237 79.3975 97.196 77.5594C96.9899 76.2886 97.4273 74.6186 98.3638 73.106L98.2869 73.0566C97.9232 73.5259 97.7235 73.8314 97.3599 74.3024Z" fill="white"/>
<path d="M114.742 70.6389C114.379 71.11 114.152 71.2893 113.998 71.1906C113.83 71.0275 114.08 70.6471 114.28 70.3421C114.63 69.8086 115.37 68.9289 115.91 68.3548C116.613 67.615 117.38 66.8615 118.564 65.8894C120.201 64.5586 122.02 63.4528 123.466 63.0816C123.91 62.9879 124.418 62.8811 124.472 63.1329C124.499 63.259 124.308 63.2997 123.855 63.657C122.48 64.6698 121.441 66.0068 120.029 68.0798C118.581 70.291 117.392 73.1049 117.536 74.3894C117.607 75.0317 117.955 75.419 118.654 75.2723C120.049 74.978 122.222 72.7444 123.731 70.1915C123.659 69.5494 123.711 68.5528 124.306 67.3095C124.802 66.2198 125.581 65.5282 125.986 65.2464C126.081 64.7654 125.934 64.0738 125.867 63.7595C125.718 63.0679 125.425 62.9322 125.587 62.7667C125.815 62.5867 126.25 62.7586 126.557 62.9567C127.172 63.3533 127.715 64.0275 127.79 64.9978C127.923 66.5472 126.855 68.6796 125.265 70.8551C125.546 70.9263 126.231 70.717 126.471 70.6014C127.016 70.354 127.645 69.8936 128.399 69.0776C129.102 68.3372 129.515 67.7905 130.079 67.0146C130.542 66.3904 130.792 66.01 131.023 66.158C131.253 66.3061 130.953 66.7641 130.439 67.4638C129.977 68.0873 129.464 68.7871 128.76 69.5274C127.894 70.4327 127.2 70.9082 126.593 71.1675C126.049 71.4143 125.288 71.5742 124.853 71.4024C123.473 73.0081 120.882 75.461 118.28 76.0089C116.314 76.4231 114.906 75.7333 114.578 73.8959C114.373 72.6251 114.81 70.9551 115.746 69.4424L115.669 69.3931C115.306 69.863 115.106 70.1678 114.742 70.6389Z" fill="white"/>
<path d="M141.798 59.2181C143.044 59.1532 143.704 60.0665 143.652 61.0625L143.716 61.0494C145.076 57.8055 147.226 53.6051 149.665 49.2129C151.333 46.1659 153.354 42.9133 155.543 39.8226C156.093 38.9841 156.773 38.4468 157.662 38.2593C158.296 38.1257 158.591 38.2606 158.707 38.498C157.345 40.4948 154.914 44.6227 153.147 47.8222C151.565 50.653 149.961 53.6869 147.28 59.1162C145.852 62.0458 143.92 66.3324 143.564 67.4589C143.281 68.3074 143.39 68.811 143.684 68.9459C144.054 69.1308 144.635 68.7453 145.088 68.3867C145.655 67.9382 146.685 66.8666 147.525 65.8351C148.628 64.4856 149.454 63.391 150.017 62.6151C150.331 62.2202 150.58 61.839 150.811 61.9878C151.042 62.1358 150.792 62.5169 150.229 63.2936C149.566 64.222 148.327 65.8633 147.324 67.0609C146.271 68.3349 144.501 70.2854 142.407 70.7265C141.201 70.9802 140.509 70.5348 140.284 69.793C140.072 69.1145 140.264 68.1543 140.687 67.3415L140.61 67.2922C139.27 69.0865 136.797 71.7774 134.414 72.4103C133.031 72.7676 131.451 72.5083 131.273 70.4435C131.198 69.4725 131.49 68.3599 132.349 66.7979L132.271 66.7486C132.121 66.9773 131.922 67.2821 131.609 67.677C131.395 67.9194 131.231 68.0849 131.078 67.9856C130.91 67.8238 131.247 67.2278 131.809 66.4518C131.959 66.2232 132.749 65.2672 133.289 64.693C133.829 64.1195 134.695 63.2135 135.83 62.317C137.809 60.7164 139.968 59.3419 141.798 59.2181ZM136.693 65.0935C134.63 68.1568 133.902 70.0192 134.205 70.8109C134.363 71.2376 134.72 71.3588 135.164 71.2657C136.37 71.0113 138.484 69.1203 139.86 67.1871C141.512 64.998 143.216 61.8116 143.064 60.7926C142.952 59.9622 142.377 59.7542 141.679 59.9009C140.41 60.1684 138.49 62.3482 136.693 65.0935Z" fill="white"/>
<path d="M159.449 63.9144C160.996 62.4711 162.086 61.0585 162.962 59.8877C163.226 59.5691 163.475 59.188 163.706 59.336C163.86 59.4347 163.687 59.8659 163.224 60.4899C162.711 61.1891 161.721 62.45 160.527 63.6876C159.334 64.9247 158.086 65.9112 156.989 66.6677C155.954 67.4119 153.806 68.5227 151.904 68.9233C148.54 69.6324 147.411 67.7662 147.287 65.9511C147.15 64.0737 148.285 62.2563 149.822 61.9994C150.724 61.8751 151.302 62.4099 151.324 63.1285C151.332 63.7844 150.996 64.3811 150.264 64.9953C149.761 65.4301 149.084 66.2954 149.209 67.1894C149.363 68.2097 150.245 68.6153 151.387 68.3747C152.657 68.1072 154.026 66.7665 154.91 64.0825C155.661 62.0175 155.994 58.0034 156.516 57.0388L156.503 56.975C156.004 57.7378 154.888 59.0249 153.97 60.0076C153.218 60.8242 152.336 61.6664 151.882 62.025C151.656 62.2038 151.429 62.383 151.261 62.2212C151.157 62.0457 151.194 61.907 151.471 61.6515C152.024 61.1404 152.904 60.2975 153.757 59.3285C154.725 58.2702 155.664 57.0862 156.855 55.5205C156.928 55.2425 157.264 54.6452 157.64 54.2373C158.23 53.5868 158.888 53.2508 159.331 53.1569C160.79 52.8496 160.014 53.868 159.298 54.5453C158.808 55.0432 158.227 55.428 157.977 55.8091C157.577 56.4195 157.749 56.9094 157.897 57.601C158.337 59.3491 158.816 60.9573 158.432 62.8786C158.24 63.8395 157.607 65.2215 156.955 65.8849C157.598 65.4869 158.568 64.7573 159.449 63.9144Z" fill="white"/>
<path d="M54.9814 107.57C54.9814 107.57 90.3391 90.0227 127.875 78.7261C151.97 72.1972 170.153 68.1336 196.053 63.439C196.473 63.3347 162.936 71.17 141.005 77.0598C103.439 87.1487 54.9814 107.57 54.9814 107.57Z" fill="white"/>
</g>
<defs>
<clipPath id="clip0_957_3214">
<rect width="273" height="111" fill="white"/>
</clipPath>
</defs>
</svg>
