<svg width="28" height="27" viewBox="0 0 28 27" fill="none" xmlns="http://www.w3.org/2000/svg">
<path d="M21.1109 9.12628C19.5947 6.50958 14.6722 6.64339 11.4423 8.50272C8.21231 10.3621 5.6395 14.594 7.14798 17.1878C7.43525 17.6287 7.80695 18.0084 8.24165 18.3051C8.67635 18.6017 9.16546 18.8093 9.68078 18.916C12.1197 19.4332 14.6636 19.0305 16.8236 17.7854C20.0418 15.9438 22.6189 11.7477 21.1109 9.12628Z" fill="#E59A51"/>
<path d="M14.8583 15.6252C14.7728 15.6029 14.6926 15.5638 14.6222 15.5104C14.5518 15.4569 14.4927 15.3901 14.4482 15.3138C14.2838 15.0378 14.1838 14.7282 14.1556 14.4082C14.146 14.2655 14.1019 14.1273 14.0272 14.0054C13.9607 13.8797 13.8619 13.774 13.7409 13.6993C13.4785 13.512 13.2611 13.2685 13.1046 12.9866C12.9364 12.7178 12.8276 12.4161 12.7857 12.1018C12.7769 11.9607 12.7321 11.8243 12.6555 11.7055C12.6087 11.6281 12.5776 11.5423 12.5639 11.4529C12.5503 11.3635 12.5543 11.2723 12.5759 11.1845C12.6195 11.0072 12.7318 10.8544 12.888 10.7599C13.0443 10.6653 13.2317 10.6367 13.409 10.6803C13.4968 10.7019 13.5795 10.7405 13.6523 10.7941C13.7252 10.8476 13.7868 10.915 13.8336 10.9924C13.9954 11.2696 14.0952 11.5785 14.1262 11.898C14.135 12.039 14.1798 12.1755 14.2564 12.2943C14.3199 12.4207 14.4159 12.528 14.5345 12.6051C14.7993 12.7898 15.0172 13.0338 15.1707 13.3178C15.336 13.5901 15.4393 13.8954 15.4733 14.2121C15.4837 14.3529 15.5284 14.4889 15.6034 14.6085C15.648 14.685 15.6771 14.7697 15.6888 14.8575C15.7006 14.9454 15.6948 15.0347 15.6719 15.1203C15.6489 15.2059 15.6093 15.2862 15.5552 15.3564C15.5011 15.4266 15.4336 15.4854 15.3566 15.5294C15.2095 15.6253 15.0306 15.6597 14.8583 15.6252Z" fill="#AF7041"/>
<path d="M11.9343 17.3024C11.8486 17.2791 11.7684 17.2389 11.6983 17.1844C11.6282 17.1298 11.5696 17.0618 11.526 16.9845C11.3695 16.7093 11.2783 16.4018 11.2593 16.0858C11.2518 15.9445 11.2069 15.8078 11.1292 15.6895C11.0632 15.5648 10.9677 15.4581 10.851 15.3786C10.5886 15.1913 10.3713 14.9479 10.2148 14.666C10.0473 14.3925 9.94446 14.0844 9.91401 13.7652C9.89673 13.6231 9.84163 13.4883 9.75445 13.3749C9.68145 13.2223 9.66869 13.0479 9.71873 12.8863C9.76877 12.7248 9.87792 12.5881 10.0244 12.5035C10.1708 12.419 10.3438 12.3928 10.5087 12.4302C10.6736 12.4677 10.8183 12.566 10.9139 12.7055C11.0871 12.9741 11.1957 13.2791 11.2312 13.5968C11.2361 13.737 11.2788 13.8734 11.3548 13.9914C11.4231 14.117 11.5208 14.2243 11.6395 14.304C11.9006 14.4905 12.1183 14.7314 12.2774 15.0101C12.4433 15.2866 12.5455 15.5965 12.5765 15.9174C12.5807 16.0596 12.6228 16.1981 12.6984 16.3185C12.7866 16.4724 12.8104 16.6549 12.7645 16.8263C12.7186 16.9976 12.6067 17.1438 12.4534 17.233C12.3759 17.2787 12.2901 17.3084 12.2009 17.3204C12.1117 17.3323 12.0211 17.3262 11.9343 17.3024Z" fill="#AF7041"/>
<path d="M17.748 13.9459C17.6623 13.9226 17.5821 13.8824 17.512 13.8278C17.4419 13.7733 17.3834 13.7053 17.3397 13.628C17.1673 13.3523 17.0605 13.0407 17.0277 12.7172C17.0229 12.5754 16.9778 12.4379 16.8975 12.3208C16.8329 12.1951 16.7372 12.0881 16.6194 12.01C16.3697 11.8216 16.1637 11.5815 16.0156 11.306C15.8464 11.0311 15.744 10.7203 15.7165 10.3987C15.7116 10.2584 15.6689 10.1221 15.5929 10.0041C15.5406 9.92779 15.5046 9.84147 15.4872 9.75058C15.4698 9.65969 15.4715 9.56619 15.4919 9.47595C15.5124 9.38571 15.5513 9.30067 15.6062 9.22619C15.6611 9.1517 15.7309 9.08936 15.811 9.0431C15.8911 8.99683 15.98 8.96763 16.0719 8.95732C16.1639 8.94701 16.257 8.95583 16.3454 8.98321C16.4338 9.01059 16.5155 9.05595 16.5856 9.11644C16.6556 9.17693 16.7124 9.25124 16.7523 9.3347C16.9198 9.60819 17.0227 9.91628 17.0531 10.2355C17.0574 10.3777 17.0994 10.5161 17.1751 10.6366C17.2433 10.7622 17.341 10.8695 17.4597 10.9492C17.7228 11.1336 17.9408 11.375 18.0976 11.6554C18.2635 11.9318 18.3657 12.2418 18.3967 12.5627C18.4009 12.7048 18.443 12.8433 18.5186 12.9638C18.6069 13.1176 18.6306 13.3002 18.5847 13.4715C18.5388 13.6428 18.427 13.789 18.2736 13.8782C18.1952 13.9245 18.1081 13.9544 18.0178 13.9661C17.9274 13.9777 17.8357 13.9709 17.748 13.9459Z" fill="#AF7041"/>
</svg>
