<svg width="20" height="20" viewBox="0 0 20 20" fill="none" xmlns="http://www.w3.org/2000/svg">
<path d="M10.9823 9.99613L18.1303 2.84449C18.2568 2.71345 18.3268 2.53794 18.3252 2.35576C18.3237 2.17359 18.2506 1.99932 18.1219 1.8705C17.9931 1.74167 17.8189 1.6686 17.6368 1.66702C17.4548 1.66544 17.2793 1.73547 17.1484 1.86203L10.0003 9.01368L2.85228 1.86203C2.72131 1.73547 2.54588 1.66544 2.3638 1.66702C2.18172 1.6686 2.00754 1.74167 1.87878 1.8705C1.75002 1.99932 1.67699 2.17359 1.6754 2.35576C1.67382 2.53794 1.74382 2.71345 1.87032 2.84449L9.01836 9.99613L1.87032 17.1478C1.74013 17.2781 1.66699 17.4548 1.66699 17.639C1.66699 17.8232 1.74013 17.9999 1.87032 18.1302C2.00055 18.2605 2.17716 18.3337 2.3613 18.3337C2.54545 18.3337 2.72205 18.2605 2.85228 18.1302L10.0003 10.9786L17.1484 18.1302C17.2786 18.2605 17.4552 18.3337 17.6393 18.3337C17.8235 18.3337 18.0001 18.2605 18.1303 18.1302C18.2605 17.9999 18.3337 17.8232 18.3337 17.639C18.3337 17.4548 18.2605 17.2781 18.1303 17.1478L10.9823 9.99613Z" fill="#434248"/>
</svg>
