<svg width="15" height="15" viewBox="0 0 15 15" fill="none" xmlns="http://www.w3.org/2000/svg">
<path d="M7.5 14.0625C8.89065 14.0625 10.2501 13.6501 11.4064 12.8775C12.5626 12.1049 13.4638 11.0068 13.996 9.722C14.5282 8.4372 14.6674 7.02345 14.3961 5.65952C14.1248 4.2956 13.4552 3.04275 12.4718 2.05941C11.4885 1.07607 10.2357 0.406409 8.87173 0.135107C7.5078 -0.136196 6.09405 0.0030466 4.80926 0.535225C3.52446 1.0674 2.42633 1.96862 1.65373 3.1249C0.881126 4.28118 0.46875 5.6406 0.46875 7.03125C0.46875 8.89606 1.20954 10.6845 2.52816 12.0031C3.84677 13.3217 5.6352 14.0625 7.5 14.0625ZM7.5 2.63438C7.68542 2.63438 7.86668 2.68936 8.02085 2.79238C8.17502 2.89539 8.29518 3.04181 8.36614 3.21311C8.43709 3.38442 8.45566 3.57292 8.41949 3.75478C8.38331 3.93663 8.29402 4.10368 8.16291 4.23479C8.0318 4.3659 7.86475 4.45519 7.6829 4.49136C7.50104 4.52754 7.31254 4.50897 7.14123 4.43801C6.96993 4.36706 6.82351 4.2469 6.7205 4.09272C6.61748 3.93855 6.5625 3.7573 6.5625 3.57188C6.5625 3.32324 6.66127 3.08478 6.83709 2.90897C7.0129 2.73315 7.25136 2.63438 7.5 2.63438ZM6.5625 7.03125C6.5625 6.78261 6.66127 6.54416 6.83709 6.36834C7.0129 6.19252 7.25136 6.09375 7.5 6.09375C7.74864 6.09375 7.9871 6.19252 8.16291 6.36834C8.33873 6.54416 8.4375 6.78261 8.4375 7.03125V10.7813C8.4375 11.0299 8.33873 11.2683 8.16291 11.4442C7.9871 11.62 7.74864 11.7188 7.5 11.7188C7.25136 11.7188 7.0129 11.62 6.83709 11.4442C6.66127 11.2683 6.5625 11.0299 6.5625 10.7813V7.03125Z" fill="white" fill-opacity="0.65"/>
</svg>
