<svg width="18" height="18" viewBox="0 0 18 18" fill="none" xmlns="http://www.w3.org/2000/svg">
<g clip-path="url(#clip0_333_2706)">
<rect width="18" height="18" fill="white"/>
<path d="M16.5 2H1.5C1.36739 2 1.24021 2.05268 1.14645 2.14645C1.05268 2.24021 1 2.36739 1 2.5V3.335C1.00009 3.45309 1.02356 3.57 1.06904 3.67898C1.11452 3.78797 1.18112 3.88687 1.265 3.97L7 9.79V14.89L8 15.27V9.5C8.00038 9.4342 7.98777 9.36897 7.96289 9.30805C7.938 9.24713 7.90134 9.19172 7.855 9.145L2 3.295V3H16V3.305L10.165 9.145C10.115 9.19003 10.0747 9.24468 10.0463 9.30568C10.018 9.36668 10.0022 9.43277 10 9.5V16.105L11 16.5V9.75L16.735 4C16.8202 3.91476 16.8876 3.81336 16.9331 3.70174C16.9786 3.59012 17.0013 3.47053 17 3.35V2.5C17 2.36739 16.9473 2.24021 16.8536 2.14645C16.7598 2.05268 16.6326 2 16.5 2Z" fill="#E9743F"/>
</g>
<defs>
<clipPath id="clip0_333_2706">
<rect width="18" height="18" fill="white"/>
</clipPath>
</defs>
</svg>
