<svg width="24" height="25" viewBox="0 0 24 25" fill="none" xmlns="http://www.w3.org/2000/svg">
<path d="M11.1196 18.75C10.9296 18.75 10.7396 18.68 10.5896 18.53L9.08957 17.03C8.79957 16.74 8.79957 16.26 9.08957 15.97C9.37957 15.68 9.85957 15.68 10.1496 15.97L11.1396 16.96L13.8596 14.45C14.1596 14.17 14.6396 14.19 14.9196 14.49C15.1996 14.79 15.1796 15.27 14.8796 15.55L11.6296 18.55C11.4896 18.68 11.3096 18.75 11.1196 18.75Z" fill="white"/>
<path d="M5.18988 6.87994C4.99988 6.87994 4.79988 6.79994 4.65988 6.65994C4.36988 6.36994 4.36988 5.88994 4.65988 5.59994L8.28988 1.96994C8.57988 1.67994 9.05988 1.67994 9.34988 1.96994C9.63988 2.25994 9.63988 2.73994 9.34988 3.02994L5.71988 6.65994C5.56988 6.79994 5.37988 6.87994 5.18988 6.87994Z" fill="white"/>
<path d="M18.8101 6.87994C18.6201 6.87994 18.4301 6.80994 18.2801 6.65994L14.6501 3.02994C14.3601 2.73994 14.3601 2.25994 14.6501 1.96994C14.9401 1.67994 15.4201 1.67994 15.7101 1.96994L19.3401 5.59994C19.6301 5.88994 19.6301 6.36994 19.3401 6.65994C19.2001 6.79994 19.0001 6.87994 18.8101 6.87994Z" fill="white"/>
<path d="M20.21 11.1001C20.14 11.1001 20.07 11.1001 20 11.1001H19.77H4C3.3 11.1101 2.5 11.1101 1.92 10.5301C1.46 10.0801 1.25 9.3801 1.25 8.3501C1.25 5.6001 3.26 5.6001 4.22 5.6001H19.78C20.74 5.6001 22.75 5.6001 22.75 8.3501C22.75 9.3901 22.54 10.0801 22.08 10.5301C21.56 11.0501 20.86 11.1001 20.21 11.1001ZM4.22 9.6001H20.01C20.46 9.6101 20.88 9.6101 21.02 9.4701C21.09 9.4001 21.24 9.1601 21.24 8.3501C21.24 7.2201 20.96 7.1001 19.77 7.1001H4.22C3.03 7.1001 2.75 7.2201 2.75 8.3501C2.75 9.1601 2.91 9.4001 2.97 9.4701C3.11 9.6001 3.54 9.6001 3.98 9.6001H4.22Z" fill="white"/>
<path d="M14.8898 23.2502H8.85975C5.27975 23.2502 4.47975 21.1202 4.16975 19.2702L2.75975 10.6202C2.68975 10.2102 2.96975 9.83024 3.37975 9.76024C3.77975 9.69024 4.16975 9.97024 4.23975 10.3802L5.64975 19.0202C5.93975 20.7902 6.53975 21.7502 8.85975 21.7502H14.8898C17.4598 21.7502 17.7498 20.8502 18.0798 19.1102L19.7598 10.3602C19.8398 9.95024 20.2298 9.68024 20.6398 9.77024C21.0498 9.85024 21.3098 10.2402 21.2298 10.6502L19.5498 19.4002C19.1598 21.4302 18.5098 23.2502 14.8898 23.2502Z" fill="white"/>
</svg>
