<svg width="16" height="15" viewBox="0 0 16 15" fill="none" xmlns="http://www.w3.org/2000/svg">
<path fill-rule="evenodd" clip-rule="evenodd" d="M7.99989 0.441406C7.73999 0.441406 7.5293 0.652096 7.5293 0.911995V7.02978H1.41199C1.1521 7.02978 0.941406 7.24047 0.941406 7.50037C0.941406 7.76027 1.1521 7.97096 1.41199 7.97096H7.5293V14.0885C7.5293 14.3484 7.73999 14.5591 7.99989 14.5591C8.25978 14.5591 8.47047 14.3484 8.47047 14.0885V7.97096H14.5885C14.8484 7.97096 15.0591 7.76027 15.0591 7.50037C15.0591 7.24047 14.8484 7.02978 14.5885 7.02978H8.47047V0.911995C8.47047 0.652096 8.25978 0.441406 7.99989 0.441406Z" fill="#434248"/>
</svg>
