<svg width="50" height="50" viewBox="0 0 50 50" fill="none" xmlns="http://www.w3.org/2000/svg">
<circle cx="25" cy="25" r="25" fill="#434248"/>
<path d="M21.7816 34.0311C21.5837 34.0311 21.3857 33.9582 21.2295 33.8019C20.9274 33.4998 20.9274 32.9998 21.2295 32.6978L28.0212 25.9061C28.5212 25.4061 28.5212 24.5936 28.0212 24.0936L21.2295 17.3019C20.9274 16.9998 20.9274 16.4998 21.2295 16.1978C21.5316 15.8957 22.0316 15.8957 22.3337 16.1978L29.1253 22.9894C29.6566 23.5207 29.9587 24.2394 29.9587 24.9998C29.9587 25.7603 29.667 26.479 29.1253 27.0103L22.3337 33.8019C22.1774 33.9478 21.9795 34.0311 21.7816 34.0311Z" fill="white"/>
</svg>
