<svg width="36" height="36" viewBox="0 0 36 36" fill="none" xmlns="http://www.w3.org/2000/svg">
<path d="M27.1821 12.3182C25.1355 8.78627 18.4915 8.96688 14.1318 11.4765C9.77215 13.9862 6.29948 19.6983 8.33556 23.1992C8.72331 23.7944 9.22501 24.3069 9.81175 24.7073C10.3985 25.1076 11.0587 25.3879 11.7542 25.532C15.0461 26.23 18.4799 25.6865 21.3952 24.0059C25.7391 21.5201 29.2175 15.8565 27.1821 12.3182Z" fill="#E59A51"/>
<path d="M18.7425 21.0904C18.6271 21.0602 18.5189 21.0075 18.4239 20.9354C18.3289 20.8632 18.2491 20.7731 18.189 20.67C17.9671 20.2975 17.8321 19.8797 17.7941 19.4477C17.7811 19.2552 17.7216 19.0686 17.6208 18.904C17.531 18.7344 17.3976 18.5917 17.2343 18.4908C16.8801 18.238 16.5867 17.9094 16.3755 17.5289C16.1484 17.1661 16.0016 16.7589 15.945 16.3346C15.9332 16.1442 15.8727 15.96 15.7693 15.7997C15.7061 15.6953 15.6641 15.5794 15.6457 15.4588C15.6272 15.3381 15.6328 15.215 15.6619 15.0965C15.7208 14.8572 15.8723 14.651 16.0832 14.5233C16.294 14.3957 16.547 14.3571 16.7863 14.4159C16.9048 14.4451 17.0165 14.4973 17.1148 14.5696C17.2131 14.6418 17.2963 14.7328 17.3595 14.8372C17.5778 15.2113 17.7126 15.6283 17.7544 16.0595C17.7662 16.2499 17.8267 16.4341 17.9301 16.5944C18.0158 16.7651 18.1454 16.9099 18.3055 17.014C18.6629 17.2632 18.957 17.5927 19.1642 17.9759C19.3874 18.3434 19.5268 18.7556 19.5726 19.1831C19.5867 19.373 19.647 19.5567 19.7483 19.718C19.8085 19.8214 19.8477 19.9356 19.8635 20.0542C19.8794 20.1728 19.8716 20.2933 19.8407 20.4089C19.8097 20.5245 19.7562 20.6327 19.6831 20.7275C19.6101 20.8223 19.519 20.9016 19.4152 20.961C19.2165 21.0905 18.975 21.1369 18.7425 21.0904Z" fill="#AF7041"/>
<path d="M14.7959 23.3541C14.6802 23.3226 14.5719 23.2685 14.4773 23.1948C14.3827 23.1211 14.3037 23.0294 14.2448 22.925C14.0335 22.5536 13.9104 22.1386 13.8849 21.7121C13.8747 21.5213 13.8141 21.3367 13.7092 21.1771C13.6201 21.0088 13.4912 20.8647 13.3338 20.7575C12.9796 20.5047 12.6862 20.1761 12.475 19.7956C12.249 19.4265 12.1101 19.0106 12.069 18.5797C12.0457 18.388 11.9713 18.2061 11.8536 18.0529C11.7551 17.847 11.7379 17.6115 11.8054 17.3935C11.873 17.1755 12.0203 16.991 12.218 16.8768C12.4156 16.7627 12.6491 16.7274 12.8717 16.7779C13.0943 16.8284 13.2896 16.9611 13.4186 17.1494C13.6524 17.5119 13.799 17.9237 13.8468 18.3524C13.8535 18.5418 13.9111 18.7258 14.0137 18.885C14.1059 19.0546 14.2377 19.1994 14.3979 19.307C14.7504 19.5588 15.0442 19.884 15.259 20.2601C15.4829 20.6333 15.6208 21.0516 15.6627 21.4848C15.6684 21.6767 15.7252 21.8635 15.8273 22.0261C15.9463 22.2338 15.9784 22.4802 15.9164 22.7115C15.8545 22.9427 15.7035 23.1401 15.4965 23.2604C15.392 23.3222 15.2761 23.3623 15.1557 23.3784C15.0354 23.3945 14.913 23.3862 14.7959 23.3541Z" fill="#AF7041"/>
<path d="M22.6431 18.8235C22.5274 18.792 22.4191 18.7379 22.3245 18.6642C22.2299 18.5905 22.1508 18.4988 22.0919 18.3944C21.8592 18.0223 21.7151 17.6017 21.6707 17.1651C21.6643 16.9737 21.6034 16.7881 21.4951 16.6301C21.4079 16.4604 21.2786 16.316 21.1196 16.2105C20.7826 15.9563 20.5046 15.6321 20.3047 15.2603C20.0764 14.8892 19.9381 14.4698 19.901 14.0357C19.8944 13.8464 19.8367 13.6623 19.7341 13.5031C19.6635 13.4001 19.6149 13.2836 19.5915 13.1609C19.568 13.0382 19.5702 12.912 19.5979 12.7902C19.6255 12.6684 19.678 12.5536 19.7521 12.4531C19.8263 12.3525 19.9203 12.2684 20.0285 12.2059C20.1367 12.1435 20.2566 12.1041 20.3807 12.0902C20.5048 12.0763 20.6305 12.0882 20.7498 12.1251C20.8691 12.1621 20.9795 12.2233 21.074 12.3049C21.1685 12.3866 21.2452 12.4869 21.2991 12.5995C21.5251 12.9687 21.664 13.3845 21.7051 13.8154C21.7108 14.0073 21.7676 14.1942 21.8697 14.3568C21.9618 14.5264 22.0936 14.6711 22.2539 14.7787C22.6089 15.0276 22.9033 15.3534 23.1149 15.7319C23.3389 16.105 23.4768 16.5234 23.5186 16.9565C23.5243 17.1484 23.5811 17.3353 23.6832 17.4979C23.8023 17.7056 23.8343 17.952 23.7724 18.1832C23.7104 18.4145 23.5594 18.6118 23.3524 18.7321C23.2466 18.7947 23.1291 18.8351 23.0071 18.8508C22.8852 18.8665 22.7613 18.8572 22.6431 18.8235Z" fill="#AF7041"/>
</svg>
