<svg width="16" height="16" viewBox="0 0 16 16" fill="none" xmlns="http://www.w3.org/2000/svg">
<path d="M8.78622 7.99681L14.5047 2.27549C14.6059 2.17066 14.6619 2.03025 14.6606 1.88451C14.6593 1.73877 14.6009 1.59936 14.4979 1.4963C14.3949 1.39324 14.2555 1.33478 14.1099 1.33352C13.9642 1.33225 13.8239 1.38828 13.7191 1.48953L8.00065 7.21084L2.28222 1.48953C2.17744 1.38828 2.0371 1.33225 1.89143 1.33352C1.74576 1.33478 1.60642 1.39324 1.50341 1.4963C1.40041 1.59936 1.34198 1.73877 1.34071 1.88451C1.33945 2.03025 1.39545 2.17066 1.49665 2.27549L7.21508 7.99681L1.49665 13.7181C1.39249 13.8224 1.33398 13.9637 1.33398 14.1111C1.33398 14.2585 1.39249 14.3998 1.49665 14.5041C1.60083 14.6083 1.74212 14.6668 1.88943 14.6668C2.03675 14.6668 2.17803 14.6083 2.28222 14.5041L8.00065 8.78277L13.7191 14.5041C13.8233 14.6083 13.9646 14.6668 14.1119 14.6668C14.2592 14.6668 14.4005 14.6083 14.5047 14.5041C14.6088 14.3998 14.6673 14.2585 14.6673 14.1111C14.6673 13.9637 14.6088 13.8224 14.5047 13.7181L8.78622 7.99681Z" fill="#434248"/>
</svg>
