<svg width="18" height="18" viewBox="0 0 18 18" fill="none" xmlns="http://www.w3.org/2000/svg">
<path d="M9.98229 8.99613L17.1303 1.84449C17.2568 1.71345 17.3268 1.53794 17.3252 1.35576C17.3237 1.17359 17.2506 0.999319 17.1219 0.870496C16.9931 0.741674 16.8189 0.668602 16.6368 0.667018C16.4548 0.665435 16.2793 0.735468 16.1484 0.862033L9.00032 8.01368L1.85228 0.862033C1.72131 0.735468 1.54588 0.665435 1.3638 0.667018C1.18172 0.668602 1.00754 0.741674 0.878779 0.870496C0.750021 0.999319 0.676986 1.17359 0.675404 1.35576C0.673821 1.53794 0.743819 1.71345 0.87032 1.84449L8.01836 8.99613L0.87032 16.1478C0.740129 16.2781 0.666992 16.4548 0.666992 16.639C0.666992 16.8232 0.740129 16.9999 0.87032 17.1302V17.1302C1.00055 17.2605 1.17716 17.3337 1.3613 17.3337C1.54545 17.3337 1.72205 17.2605 1.85228 17.1302L9.00032 9.97859L16.1484 17.1302C16.2786 17.2605 16.4552 17.3337 16.6393 17.3337C16.8235 17.3337 17.0001 17.2605 17.1303 17.1302C17.2605 16.9999 17.3337 16.8232 17.3337 16.639C17.3337 16.4548 17.2605 16.2781 17.1303 16.1478L9.98229 8.99613Z" fill="#434248"/>
</svg>
