<svg width="36" height="36" viewBox="0 0 36 36" fill="none" xmlns="http://www.w3.org/2000/svg">
<path d="M26.3478 19.4875L20.9141 23.8333H13.6224V22.375H19.5505C19.6824 22.3749 19.8118 22.3391 19.925 22.2713C20.0381 22.2035 20.1307 22.1063 20.193 21.99C20.2552 21.8737 20.2848 21.7427 20.2785 21.611C20.2722 21.4792 20.2303 21.3517 20.1572 21.2419L18.8622 19.2994C18.5965 18.8995 18.236 18.5716 17.8129 18.3449C17.3897 18.1182 16.917 17.9997 16.437 18H4.8724C4.48562 18 4.11469 18.1536 3.8412 18.4271C3.56771 18.7006 3.41406 19.0716 3.41406 19.4583V28.2083C3.41406 28.9819 3.72135 29.7237 4.26833 30.2707C4.81532 30.8177 5.55718 31.125 6.33073 31.125H20.3876C21.0112 31.1251 21.6276 30.992 22.1955 30.7344C22.7635 30.4769 23.2698 30.1009 23.6805 29.6317L32.5807 19.4583L30.4632 18.7525C29.7704 18.5216 29.0309 18.4679 28.312 18.5962C27.5931 18.7246 26.9178 19.031 26.3478 19.4875ZM28.582 11.2771C29.2397 10.599 29.6466 9.66125 29.6466 8.62583C29.6466 7.59042 29.2397 6.65271 28.582 5.97458C28.2494 5.62747 27.85 5.35114 27.408 5.16219C26.9659 4.97323 26.4902 4.87555 26.0095 4.875C26.0095 4.875 24.1953 4.87062 22.3724 6.75042C20.5495 4.87062 18.7353 4.875 18.7353 4.875C18.2547 4.87561 17.7792 4.97318 17.3371 5.16187C16.8951 5.35055 16.4957 5.62648 16.1628 5.97313C15.5051 6.65271 15.0982 7.58896 15.0982 8.62438C15.0982 9.65979 15.5051 10.599 16.1628 11.2756L22.3724 18L28.582 11.2771Z" fill="white"/>
</svg>
