<svg width="36" height="36" viewBox="0 0 36 36" fill="none" xmlns="http://www.w3.org/2000/svg">
<mask id="mask0_1288_7780" style="mask-type:luminance" maskUnits="userSpaceOnUse" x="3" y="2" width="30" height="31">
<path d="M9.95272 18.0912C9.12498 17.9264 8.33877 17.5976 7.64058 17.1242C6.94239 16.6509 6.3464 16.0427 5.88786 15.3356C5.42931 14.6284 5.11753 13.8367 4.97094 13.0072C4.82435 12.1777 4.84593 11.3273 5.03441 10.5063C5.22288 9.68531 5.57443 8.91034 6.06825 8.22726C6.56208 7.54417 7.18815 6.96684 7.90945 6.52939C8.63076 6.09194 9.43264 5.80326 10.2677 5.68043C11.1027 5.5576 11.954 5.6031 12.7711 5.81425C13.3615 5.06631 14.1144 4.46189 14.973 4.04659C15.8315 3.63128 16.7734 3.41592 17.7276 3.41675C18.7092 3.4159 19.6774 3.64381 20.5552 4.08232C21.4329 4.52083 22.1959 5.15784 22.7834 5.94258C23.602 5.66546 24.469 5.55906 25.3305 5.62995C26.192 5.70085 27.0298 5.94754 27.7919 6.35474C28.5539 6.76194 29.2241 7.32097 29.7608 7.9972C30.2975 8.67342 30.6893 9.45242 30.912 10.2859C31.1346 11.1194 31.1834 11.9897 31.0552 12.8428C30.927 13.6959 30.6247 14.5136 30.1668 15.2453C29.709 15.977 29.1054 16.6071 28.3936 17.0965C27.6817 17.5859 26.8768 17.9242 26.0285 18.0905V29.6668C26.0285 30.0535 25.8745 30.4245 25.6005 30.698C25.3264 30.9714 24.9547 31.1251 24.5671 31.1251H11.4142C11.0266 31.1251 10.6548 30.9714 10.3808 30.698C10.1067 30.4245 9.95272 30.0535 9.95272 29.6668V18.0912Z" fill="white" stroke="white" stroke-width="2.33333" stroke-linecap="round" stroke-linejoin="round"/>
<path d="M9.95312 23.1042H26.0289M15.0681 18.7292V23.1042" stroke="black" stroke-width="2.33333" stroke-linecap="round" stroke-linejoin="round"/>
<path d="M26.0289 20.9167V25.2917M9.95312 20.9167V25.2917" stroke="white" stroke-width="2.33333" stroke-linecap="round" stroke-linejoin="round"/>
</mask>
<g mask="url(#mask0_1288_7780)">
<path d="M0.453125 0.5H35.5276V35.5H0.453125V0.5Z" fill="white"/>
</g>
</svg>
