<svg width="68" height="68" viewBox="0 0 68 68" fill="none" xmlns="http://www.w3.org/2000/svg">
<circle cx="34" cy="34" r="34" fill="#E9743F"/>
<path d="M16.4989 29.2988C17.2078 29.2988 17.7673 29.4945 18.1772 29.8858C18.587 30.2772 18.7918 30.7897 18.7918 31.423C18.7918 32.0596 18.587 32.5713 18.1772 32.958C17.7673 33.3449 17.2078 33.5383 16.4989 33.5383H15.4524V35.0138L16.1159 35.151V35.9504H13.5508V35.151L14.2101 35.0138V30.24L13.5508 30.1029V29.2988H14.2101H16.4989ZM15.4524 32.5104H16.4989C16.8449 32.5104 17.1064 32.4092 17.2839 32.2067C17.4612 32.0041 17.5497 31.7461 17.5497 31.4324C17.5497 31.1126 17.461 30.8483 17.2839 30.6398C17.1066 30.4311 16.8449 30.3269 16.4989 30.3269H15.4524V32.5104Z" fill="white"/>
<path d="M25.1015 32.6745C25.1015 33.649 24.842 34.4546 24.3231 35.0912C23.804 35.7278 23.1248 36.0459 22.2854 36.0459C21.4487 36.0459 20.7733 35.7276 20.2584 35.0912C19.7436 34.4548 19.4863 33.6493 19.4863 32.6745V32.5741C19.4863 31.6056 19.7429 30.8016 20.2564 30.1619C20.7697 29.5223 21.4446 29.2026 22.2814 29.2026C23.1208 29.2026 23.8007 29.5225 24.3213 30.1619C24.8417 30.8016 25.1018 31.6056 25.1018 32.5741V32.6745H25.1015ZM23.8636 32.5649C23.8636 31.8768 23.7302 31.3177 23.4637 30.8882C23.197 30.4588 22.8028 30.244 22.2812 30.244C21.7593 30.244 21.3701 30.4573 21.1136 30.8837C20.8568 31.31 20.7285 31.8704 20.7285 32.5649V32.6745C20.7285 33.3751 20.8582 33.9393 21.1177 34.3672C21.3772 34.7951 21.7664 35.0089 22.2854 35.0089C22.8101 35.0089 23.2043 34.7949 23.468 34.3672C23.7317 33.9393 23.8636 33.3751 23.8636 32.6745V32.5649Z" fill="white"/>
<path d="M30.8321 29.2988V31.0713H29.8793L29.8283 30.3267H28.6882V35.0139L29.3518 35.151V35.9504H26.7824V35.151L27.4459 35.0139V30.3267H26.3101L26.2591 31.0713H25.3105V29.2988H30.8321Z" fill="white"/>
<path d="M37.01 29.2988V31.0713H36.0572L36.0062 30.3267H34.8661V35.0139L35.5297 35.151V35.9504H32.9601V35.151L33.6237 35.0139V30.3267H32.4879L32.4368 31.0713H31.4883V29.2988H37.01Z" fill="white"/>
<path d="M41.6665 33.0265H39.5694V34.927H41.5687L41.624 34.1321H42.5685V35.9502H37.668V35.1508L38.3272 35.0137V30.24L37.668 30.1029V29.2988H38.3272H42.56V31.1215H41.6071L41.5518 30.3267H39.5695V31.9987H41.6667V33.0265H41.6665Z" fill="white"/>
<path d="M49.8851 26.9947C52.7757 26.9947 55.1275 29.5201 55.1275 32.6244C55.1275 35.7287 52.7757 38.2541 49.8851 38.2541C46.9943 38.2541 44.6428 35.7287 44.6428 32.6244C44.6428 29.5201 46.9943 26.9947 49.8851 26.9947ZM49.8851 26.231C46.597 26.231 43.9316 29.0933 43.9316 32.6244C43.9316 36.1555 46.597 39.0178 49.8851 39.0178C53.173 39.0178 55.8384 36.1555 55.8384 32.6244C55.8384 29.0933 53.173 26.231 49.8851 26.231Z" fill="#434248"/>
<path d="M49.8743 29.3447C50.5775 29.3447 51.1292 29.5175 51.5288 29.8633C51.9289 30.2089 52.1287 30.6865 52.1287 31.2954C52.1287 31.6305 52.0452 31.9213 51.8776 32.168C51.7104 32.4147 51.465 32.6142 51.1418 32.7664C51.5079 32.8821 51.7709 33.0747 51.9308 33.3444C52.0911 33.6137 52.1713 33.9481 52.1713 34.347V34.6851C52.1713 34.8314 52.1982 34.9448 52.2524 35.0256C52.3063 35.1062 52.3954 35.1543 52.5201 35.1694L52.6733 35.1923V35.9963H52.0309C51.6253 35.9963 51.3403 35.8791 51.1757 35.6446C51.0115 35.4101 50.929 35.1071 50.929 34.7355V34.3563C50.929 34.0336 50.8489 33.7799 50.6886 33.5956C50.5283 33.4114 50.3022 33.3148 50.0103 33.3056H48.9934V35.0599L49.6571 35.197V35.9965H47.0918V35.197L47.7512 35.0599V30.2859L47.0918 30.1488V29.3447H47.7512H49.8743ZM48.9934 32.2776H49.8526C50.1988 32.2776 50.4582 32.1983 50.6311 32.04C50.8043 31.8817 50.8907 31.6534 50.8907 31.3548C50.8907 31.0563 50.805 30.8178 50.6331 30.6399C50.4615 30.4615 50.2084 30.3726 49.8739 30.3726H48.9931V32.2776H48.9934Z" fill="white"/>
</svg>
