<svg width="80" height="80" viewBox="0 0 80 80" fill="none" xmlns="http://www.w3.org/2000/svg">
<circle cx="40" cy="40" r="40" fill="#E9743F"/>
<path d="M49.542 41.7L43.332 46.6667H34.9987V45H41.7737C41.9244 44.9999 42.0723 44.959 42.2016 44.8815C42.3309 44.804 42.4368 44.6929 42.5079 44.56C42.5791 44.4271 42.6129 44.2774 42.6056 44.1268C42.5984 43.9763 42.5505 43.8305 42.467 43.705L40.987 41.485C40.6834 41.028 40.2714 40.6533 39.7878 40.3942C39.3042 40.135 38.764 39.9996 38.2154 40H24.9987C24.5567 40 24.1327 40.1756 23.8202 40.4882C23.5076 40.8007 23.332 41.2246 23.332 41.6667V51.6667C23.332 52.5507 23.6832 53.3986 24.3083 54.0237C24.9335 54.6488 25.7813 55 26.6654 55H42.7304C43.443 55.0002 44.1475 54.848 44.7966 54.5536C45.4456 54.2593 46.0243 53.8296 46.4937 53.2933L56.6654 41.6667L54.2454 40.86C53.4536 40.5961 52.6084 40.5347 51.7868 40.6814C50.9652 40.8281 50.1935 41.1783 49.542 41.7ZM52.0954 32.3167C52.847 31.5417 53.312 30.47 53.312 29.2867C53.312 28.1033 52.847 27.0317 52.0954 26.2567C51.7152 25.86 51.2589 25.5442 50.7536 25.3282C50.2484 25.1123 49.7048 25.0006 49.1554 25C49.1554 25 47.082 24.995 44.9987 27.1433C42.9154 24.995 40.842 25 40.842 25C40.2928 25.0007 39.7493 25.1122 39.2441 25.3278C38.739 25.5435 38.2825 25.8588 37.902 26.255C37.1504 27.0317 36.6854 28.1017 36.6854 29.285C36.6854 30.4683 37.1504 31.5417 37.902 32.315L44.9987 40L52.0954 32.3167Z" fill="white"/>
</svg>
