<svg width="95" height="95" viewBox="0 0 95 95" fill="none" xmlns="http://www.w3.org/2000/svg">
<circle cx="47.5" cy="47.5" r="47.5" fill="#E9743F"/>
<path d="M38.8331 44.6668C38.4614 44.6668 38.1048 44.7235 37.7498 44.7751C37.8648 44.3885 37.9831 43.9951 38.1731 43.6418C38.3631 43.1285 38.6598 42.6835 38.9548 42.2351C39.2014 41.7501 39.6364 41.4218 39.9564 41.0068C40.2914 40.6035 40.7481 40.3351 41.1098 40.0001C41.4648 39.6501 41.9298 39.4751 42.2998 39.2285C42.6864 39.0068 43.0231 38.7618 43.3831 38.6451L44.2814 38.2751L45.0714 37.9468L44.2631 34.7168L43.2681 34.9568C42.9498 35.0368 42.5614 35.1301 42.1198 35.2418C41.6681 35.3251 41.1864 35.5535 40.6498 35.7618C40.1198 35.9985 39.5064 36.1585 38.9364 36.5385C38.3631 36.9018 37.7014 37.2051 37.1181 37.6918C36.5531 38.1935 35.8714 38.6285 35.3681 39.2668C34.8181 39.8635 34.2748 40.4901 33.8531 41.2035C33.3648 41.8835 33.0331 42.6301 32.6831 43.3685C32.3664 44.1068 32.1114 44.8618 31.9031 45.5951C31.5081 47.0651 31.3314 48.4618 31.2631 49.6568C31.2064 50.8535 31.2398 51.8485 31.3098 52.5685C31.3348 52.9085 31.3814 53.2385 31.4148 53.4668L31.4564 53.7468L31.4998 53.7368C31.7962 55.1215 32.4786 56.394 33.468 57.4071C34.4575 58.4202 35.7135 59.1324 37.0908 59.4615C38.4681 59.7906 39.9105 59.723 41.251 59.2665C42.5915 58.8101 43.7754 57.9835 44.6658 56.8823C45.5561 55.7811 46.1165 54.4503 46.2821 53.044C46.4477 51.6376 46.2118 50.2131 45.6016 48.9352C44.9915 47.6573 44.032 46.5782 42.8342 45.8229C41.6364 45.0675 40.2492 44.6667 38.8331 44.6668ZM57.1664 44.6668C56.7948 44.6668 56.4381 44.7235 56.0831 44.7751C56.1981 44.3885 56.3164 43.9951 56.5064 43.6418C56.6964 43.1285 56.9931 42.6835 57.2881 42.2351C57.5348 41.7501 57.9698 41.4218 58.2898 41.0068C58.6248 40.6035 59.0814 40.3351 59.4431 40.0001C59.7981 39.6501 60.2631 39.4751 60.6331 39.2285C61.0198 39.0068 61.3564 38.7618 61.7164 38.6451L62.6148 38.2751L63.4048 37.9468L62.5964 34.7168L61.6014 34.9568C61.2831 35.0368 60.8948 35.1301 60.4531 35.2418C60.0014 35.3251 59.5198 35.5535 58.9831 35.7618C58.4548 36.0001 57.8398 36.1585 57.2698 36.5401C56.6964 36.9035 56.0348 37.2068 55.4514 37.6935C54.8864 38.1951 54.2048 38.6301 53.7014 39.2668C53.1514 39.8635 52.6081 40.4901 52.1864 41.2035C51.6981 41.8835 51.3664 42.6301 51.0164 43.3685C50.6998 44.1068 50.4448 44.8618 50.2364 45.5951C49.8414 47.0651 49.6648 48.4618 49.5964 49.6568C49.5398 50.8535 49.5731 51.8485 49.6431 52.5685C49.6681 52.9085 49.7148 53.2385 49.7481 53.4668L49.7898 53.7468L49.8331 53.7368C50.1295 55.1215 50.8119 56.394 51.8014 57.4071C52.7908 58.4202 54.0468 59.1324 55.4242 59.4615C56.8015 59.7906 58.2438 59.723 59.5843 59.2665C60.9249 58.8101 62.1088 57.9835 62.9991 56.8823C63.8894 55.7811 64.4498 54.4503 64.6154 53.044C64.7811 51.6376 64.5451 50.2131 63.935 48.9352C63.3248 47.6573 62.3653 46.5782 61.1675 45.8229C59.9697 45.0675 58.5825 44.6667 57.1664 44.6668Z" fill="white"/>
</svg>
